<svg width="96" height="104" viewBox="0 0 96 104" fill="none" xmlns="http://www.w3.org/2000/svg">
<path d="M80.5 38.7117L95.3125 36.3867" stroke="#FF9F24" stroke-width="3"/>
<path d="M75.8691 25.0813L85.1316 19.625" stroke="#FF9F24" stroke-width="3"/>
<path d="M66.4189 14.9936L72.6439 1.45605" stroke="#FF9F24" stroke-width="3"/>
<path d="M48.7195 13.0436L48.6445 2.2998" stroke="#FF9F24" stroke-width="3"/>
<path d="M31.5443 15.6686L26.5381 1.45605" stroke="#FF9F24" stroke-width="3"/>
<path d="M19.732 24.9305L10.3008 19.793" stroke="#FF9F24" stroke-width="3"/>
<path d="M15.5879 37.9436L1.05664 35.4873" stroke="#FF9F24" stroke-width="3"/>
<path d="M35.1625 78.2563C35.1625 68.5813 29.1812 60.4625 25.9562 54.4625C24.1645 51.1308 23.2241 47.4079 23.2188 43.625C23.2188 30.8938 34.8625 20.5625 47.5937 20.5625" stroke="#FF9F24" stroke-width="3"/>
<path d="M60.025 78.2563C60.025 68.5813 66.0063 60.4625 69.2313 54.4625C71.023 51.1308 71.9634 47.4079 71.9688 43.625C71.9687 30.8938 60.325 20.5625 47.5938 20.5625" stroke="#FF9F24" stroke-width="3"/>
<path d="M61.8254 77.7314H34.2816C32.0863 77.7314 30.3066 79.5111 30.3066 81.7065V81.7252C30.3066 83.9205 32.0863 85.7002 34.2816 85.7002H61.8254C64.0207 85.7002 65.8004 83.9205 65.8004 81.7252V81.7065C65.8004 79.5111 64.0207 77.7314 61.8254 77.7314Z" stroke="#FF9F24" stroke-width="3"/>
<path d="M59.6502 85.6807H36.4564C34.2611 85.6807 32.4814 87.4603 32.4814 89.6557V89.6744C32.4814 91.8697 34.2611 93.6494 36.4564 93.6494H59.6502C61.8455 93.6494 63.6252 91.8697 63.6252 89.6744V89.6557C63.6252 87.4603 61.8455 85.6807 59.6502 85.6807Z" stroke="#FF9F24" stroke-width="3"/>
<path d="M54.1006 93.6494V95.2244C54.1663 96.0573 54.0589 96.8947 53.7853 97.6841C53.5117 98.4735 53.0777 99.1977 52.5107 99.8112C51.9436 100.425 51.2558 100.914 50.4904 101.249C49.7249 101.584 48.8985 101.757 48.0631 101.757C47.2276 101.757 46.4012 101.584 45.6358 101.249C44.8704 100.914 44.1825 100.425 43.6155 99.8112C43.0484 99.1977 42.6145 98.4735 42.3409 97.6841C42.0672 96.8947 41.9599 96.0573 42.0256 95.2244V93.6494" stroke="#FF9F24" stroke-width="3"/>
<path d="M32.0693 42.2184C32.1629 40.3725 32.6195 38.5632 33.4129 36.8939C34.2064 35.2246 35.3211 33.7281 36.6933 32.49C38.0655 31.2518 39.6684 30.2963 41.4102 29.6781C43.152 29.0599 44.9986 28.7911 46.8443 28.8872" stroke="#FF9F24" stroke-width="3"/>
</svg>
