<svg width="120" height="120" viewBox="0 0 120 120" fill="none" xmlns="http://www.w3.org/2000/svg">
<g clip-path="url(#clip0_391_8262)">
<path d="M60.3125 36.4346C54.7576 36.4346 50.3896 40.4301 50.3896 45.519C50.3896 50.608 54.7539 54.6035 60.3125 54.6035C65.8673 54.6035 70.2353 50.608 70.2353 45.519C70.2353 40.4301 65.871 36.4346 60.3125 36.4346ZM60.3125 50.9656C56.9379 50.9656 54.3595 48.6051 54.3595 45.5156C54.3595 42.4262 56.9379 40.0656 60.3125 40.0656C63.687 40.0656 66.2654 42.4262 66.2654 45.5156C66.2654 48.6051 63.687 50.9656 60.3125 50.9656Z" fill="#0055D2"/>
<path d="M80.1546 75.4905C80.1546 62.4105 80.1546 47.515 80.1546 42.065C80.1546 31.8905 72.8139 18.085 60.3127 11C47.8115 18.085 40.4708 31.8905 40.4708 42.2455C40.4708 47.6955 40.4708 62.5911 40.4708 75.6711L20.6289 98.1966H100L80.1583 75.4871L80.1546 75.4905ZM40.4671 94.5655H28.9593L40.4671 81.305V94.5655ZM76.1847 94.5655H44.437V42.2455C44.437 34.0705 49.9918 22.2611 60.3127 15.36C70.6299 22.2645 76.1885 33.89 76.1885 42.2455V94.5655H76.1847ZM80.1546 81.305L91.6624 94.5655H80.1546C80.1546 91.4761 80.1546 86.755 80.1546 81.305Z" fill="#0055D2"/>
<path d="M58.3262 101.834H62.296V120H58.3262V101.834Z" fill="#0055D2"/>
<path d="M68.249 101.834H72.2189V112.734H68.249V101.834Z" fill="#0055D2"/>
<path d="M48.4072 101.834H52.3771V112.734H48.4072V101.834Z" fill="#0055D2"/>
</g>
<defs>
<clipPath id="clip0_391_8262">
<rect width="120" height="120" fill="white"/>
</clipPath>
</defs>
</svg>
